<?xml version="1.0" standalone="no"?>
<!DOCTYPE svg PUBLIC "-//W3C//DTD SVG 20010904//EN"
 "http://www.w3.org/TR/2001/REC-SVG-20010904/DTD/svg10.dtd">
<svg version="1.0" xmlns="http://www.w3.org/2000/svg"
 width="480.000000pt" height="480.000000pt" viewBox="0 0 480.000000 480.000000"
 preserveAspectRatio="xMidYMid meet">
<metadata>
Created by potrace 1.11, written by Peter Selinger 2001-2013
</metadata>
<g transform="translate(0.000000,480.000000) scale(0.100000,-0.100000)"
fill="#000000" stroke="none">
<path d="M2525 4509 c-127 -18 -256 -111 -315 -228 -132 -263 25 -571 318
-622 180 -32 372 73 455 248 30 64 32 75 32 178 0 103 -2 114 -32 177 -84 178
-263 274 -458 247z m198 -142 c240 -110 241 -450 2 -567 -68 -33 -188 -35
-256 -3 -193 88 -249 332 -114 491 92 107 238 139 368 79z"/>
<path d="M1725 3599 c-255 -34 -492 -131 -694 -285 -282 -213 -465 -506 -543
-868 -31 -145 -31 -407 0 -552 48 -223 134 -416 261 -584 220 -291 509 -473
875 -552 145 -31 407 -31 552 0 285 61 535 193 732 385 147 143 292 375 356
571 54 163 70 267 70 456 0 189 -16 293 -70 456 -62 190 -194 405 -337 552
-191 196 -463 343 -746 402 -112 24 -350 34 -456 19z m465 -67 c130 -30 204
-57 335 -122 379 -188 647 -538 741 -971 26 -119 26 -419 0 -538 -59 -271
-177 -497 -359 -688 -201 -210 -446 -346 -738 -409 -119 -26 -419 -26 -538 0
-133 29 -226 62 -356 126 -379 188 -647 538 -741 971 -26 119 -26 419 0 538
59 271 177 497 359 687 220 230 497 375 812 424 99 15 387 4 485 -18z"/>
<path d="M1862 3084 c-29 -7 -65 -20 -80 -28 -45 -24 -99 -87 -128 -149 -22
-50 -26 -69 -22 -130 8 -160 127 -284 281 -295 77 -6 138 13 207 64 148 109
165 325 36 457 -45 45 -94 71 -164 86 -64 13 -64 13 -130 -5z m71 -308 c63
-26 92 -106 62 -169 -22 -46 -59 -70 -111 -71 -132 -3 -179 180 -61 238 40 19
68 20 110 2z"/>
<path d="M2468 2509 c-108 -16 -217 -114 -248 -223 -52 -185 88 -374 286 -384
62 -4 81 0 133 23 279 125 229 537 -71 583 -29 4 -74 5 -100 1z m-25 -243 c63
-26 92 -106 62 -169 -57 -122 -238 -80 -238 55 0 52 22 90 66 112 40 19 68 20
110 2z"/>
<path d="M3695 3277 c-165 -55 -276 -183 -305 -350 -49 -279 210 -537 491
-489 285 49 442 347 320 607 -42 90 -108 157 -199 202 -68 34 -83 38 -171 40
-60 2 -111 -2 -136 -10z m251 -132 c201 -90 243 -368 77 -514 -161 -142 -406
-89 -496 108 -32 68 -30 188 3 256 77 157 256 222 416 150z"/>
</g>
</svg>
